{
   "accessors" : [
      {
         "bufferView" : 2,
         "byteOffset" : 0,
         "componentType" : 5126,
         "count" : 7968,
         "max" : [ 1, 1, 1, 1 ],
         "min" : [ 0, 0.05284162983298302, 0, 1 ],
         "name" : "accessor_color_m0-PolyPaper21_-70756",
         "type" : "VEC4"
      },
      {
         "bufferView" : 2,
         "byteOffset" : 127488,
         "componentType" : 5126,
         "count" : 9702,
         "max" : [ 1, 1, 1, 1 ],
         "min" : [ 0.0697270855307579, 0.3488648533821106, 0.06575388461351395, 1 ],
         "name" : "accessor_color_m1-PolyPaper9_-70548",
         "type" : "VEC4"
      },
      {
         "bufferView" : 0,
         "byteOffset" : 0,
         "componentType" : 5123,
         "count" : 11394,
         "max" : [ 7967 ],
         "min" : [ 0 ],
         "name" : "accessor_indices_0_m0-PolyPaper21_-70756",
         "type" : "SCALAR"
      },
      {
         "bufferView" : 0,
         "byteOffset" : 22788,
         "componentType" : 5123,
         "count" : 13758,
         "max" : [ 9701 ],
         "min" : [ 0 ],
         "name" : "accessor_indices_0_m1-PolyPaper9_-70548",
         "type" : "SCALAR"
      },
      {
         "bufferView" : 1,
         "byteOffset" : 95616,
         "componentType" : 5126,
         "count" : 7968,
         "max" : [ 1, 1, 1 ],
         "min" : [ -1, -1, -1 ],
         "name" : "accessor_normal_m0-PolyPaper21_-70756",
         "type" : "VEC3"
      },
      {
         "bufferView" : 1,
         "byteOffset" : 307656,
         "componentType" : 5126,
         "count" : 9702,
         "max" : [ 1, 1, 1 ],
         "min" : [ -1, -1, -1 ],
         "name" : "accessor_normal_m1-PolyPaper9_-70548",
         "type" : "VEC3"
      },
      {
         "bufferView" : 1,
         "byteOffset" : 0,
         "componentType" : 5126,
         "count" : 7968,
         "max" : [ 0.3957955, 2.199744, 0.4300368 ],
         "min" : [ -0.2414975, 1.660073, -0.2857948 ],
         "name" : "accessor_position_m0-PolyPaper21_-70756",
         "type" : "VEC3"
      },
      {
         "bufferView" : 1,
         "byteOffset" : 191232,
         "componentType" : 5126,
         "count" : 9702,
         "max" : [ 0.3893921, 2.240031, 0.4099941 ],
         "min" : [ -0.1000399, 1.578292, -0.3195311 ],
         "name" : "accessor_position_m1-PolyPaper9_-70548",
         "type" : "VEC3"
      }
   ],
   "asset" : {
      "copyright" : "Unknown",
      "extras" : {
         "GOOGLE_processor_version" : 294144208
      },
      "generator" : "glTF 1-to-2 Upgrader for Google Blocks",
      "version" : "2.0"
   },
   "bufferViews" : [
      {
         "buffer" : 0,
         "byteLength" : 50304,
         "byteOffset" : 0,
         "name" : "ushortBufferView",
         "target" : 34963
      },
      {
         "buffer" : 0,
         "byteLength" : 424080,
         "byteOffset" : 50304,
         "byteStride" : 12,
         "name" : "vec3BufferView",
         "target" : 34962
      },
      {
         "buffer" : 0,
         "byteLength" : 282720,
         "byteOffset" : 474384,
         "byteStride" : 16,
         "name" : "vec4BufferView",
         "target" : 34962
      }
   ],
   "buffers" : [
      {
         "byteLength" : 757104,
         "name" : "model",
         "uri" : "model.bin"
      }
   ],
   "cameras" : [
      {
         "perspective" : {
            "yfov" : 0.7853981633974483,
            "znear" : 0.1000000014901161
         },
         "type" : "perspective"
      }
   ],
   "extensions" : {
      "KHR_lights_punctual" : {
         "lights" : [
            {
               "color" : [ 1, 0.9333333333333333, 0.8666666666666667 ],
               "intensity" : 0.25,
               "name" : "headLight",
               "type" : "directional"
            },
            {
               "color" : [ 1, 0.9333333333333333, 0.8666666666666667 ],
               "intensity" : 0.324999988079071,
               "name" : "keyLight",
               "type" : "directional"
            }
         ]
      }
   },
   "extensionsUsed" : [ "GOOGLE_backgrounds", "GOOGLE_camera_settings", "KHR_lights_punctual" ],
   "extras" : {
      "GOOGLE_initial_camera_motion" : {
         "motionPath" : "FULL_ROTATION"
      },
      "GOOGLE_lighting_rig" : {
         "disableShadows" : false
      }
   },
   "materials" : [
      {
         "alphaMode" : "OPAQUE",
         "doubleSided" : false,
         "name" : "BlocksPaper",
         "pbrMetallicRoughness" : {
            "baseColorFactor" : [ 1, 1, 1, 1 ],
            "metallicFactor" : 0,
            "roughnessFactor" : 0.6
         }
      },
      {
         "alphaMode" : "BLEND",
         "doubleSided" : false,
         "name" : "BlocksGlass",
         "pbrMetallicRoughness" : {
            "baseColorFactor" : [ 0.2, 0.2, 1, 0.3 ],
            "metallicFactor" : 1,
            "roughnessFactor" : 0.4
         }
      },
      {
         "alphaMode" : "OPAQUE",
         "doubleSided" : true,
         "name" : "BlocksGem",
         "pbrMetallicRoughness" : {
            "baseColorFactor" : [ 1, 0.4, 1, 1 ],
            "metallicFactor" : 0,
            "roughnessFactor" : 0.1
         }
      }
   ],
   "meshes" : [
      {
         "name" : "mesh_m0-PolyPaper21_-70756",
         "primitives" : [
            {
               "attributes" : {
                  "COLOR_0" : 0,
                  "NORMAL" : 4,
                  "POSITION" : 6
               },
               "indices" : 2,
               "material" : 0,
               "mode" : 4
            }
         ]
      },
      {
         "name" : "mesh_m1-PolyPaper9_-70548",
         "primitives" : [
            {
               "attributes" : {
                  "COLOR_0" : 1,
                  "NORMAL" : 5,
                  "POSITION" : 7
               },
               "indices" : 3,
               "material" : 0,
               "mode" : 4
            }
         ]
      }
   ],
   "nodes" : [
      {
         "mesh" : 1,
         "name" : "node_MeshObject1701543936-PolyPaper9"
      },
      {
         "mesh" : 0,
         "name" : "node_MeshObject300296256-PolyPaper21"
      },
      {
         "children" : [ 3 ]
      },
      {
         "children" : [ 4 ],
         "extras" : {
            "isTransformNode" : 1
         },
         "translation" : [ 0.08474607729154381, 1.882601561364352, -0.01826862221513272 ]
      },
      {
         "children" : [ 1, 0 ],
         "translation" : [ -0.08474607729154381, -1.882601561364352, 0.01826862221513272 ]
      },
      {
         "camera" : 0,
         "children" : [ 6 ],
         "rotation" : [
            -0.08924728437348506,
            0.2328993298931193,
            0.02146923512048439,
            0.9681590242881775
         ],
         "translation" : [ 0.5399301648139954, 2.10326361656189, 0.9809809327125549 ]
      },
      {
         "extensions" : {
            "KHR_lights_punctual" : {
               "light" : 0
            }
         },
         "extras" : {
            "isHeadLight" : 1
         },
         "name" : "headLightNode",
         "translation" : [ -0.6159220992520305, 0.3079610496260152, 0.3079610496260152 ]
      },
      {
         "extensions" : {
            "KHR_lights_punctual" : {
               "light" : 1
            }
         },
         "extras" : {
            "isKeyLight" : 1
         },
         "name" : "keyLightNode",
         "rotation" : [ -0.7505326882858236, -0.3752663441429118, 0, 0.5439447166468927 ],
         "scale" : [ 0, 0, 0.6220813202445508 ],
         "translation" : [ -0.6022242176033547, 3.274015345701421, -0.7188468749236834 ]
      }
   ],
   "scene" : 0,
   "scenes" : [
      {
         "extensions" : {
            "GOOGLE_backgrounds" : {
               "color" : [ 0.1294117647058824, 0.5882352941176471, 0.9529411764705882 ]
            },
            "GOOGLE_camera_settings" : {}
         },
         "extras" : {
            "GOOGLE_camera_index" : {
               "cameraIndex" : 0,
               "nodeIndex" : 5
            },
            "GOOGLE_geometry_data" : {
               "stats" : {
                  "centroid" : [ 0.01985710264119608, 2.02985270521232, -0.09676555467913261 ],
                  "radius" : 0.6159220992520305,
                  "stdev" : 0.2544622111866819
               },
               "visualCenterPoint" : [ 0.08474607729154381, 1.882601561364352, -0.01826862221513272 ]
            },
            "GOOGLE_hemi_light" : {
               "groundColor" : [ 0.1294117647058824, 0.5882352941176471, 0.9529411764705882 ]
            }
         },
         "name" : "defaultScene",
         "nodes" : [ 2, 5, 7 ]
      }
   ]
}
